<svg xmlns="http://www.w3.org/2000/svg" viewBox="0 0 1652.25 871.46"><title>Isotipo-negro</title><g id="Capa_2" data-name="Capa 2"><g id="Capa_1-2" data-name="Capa 1"><path d="M406.57,544H307.16l30.56-208.15h-111L159.34,794.68h111l24.56-167.32h98.64Q400.05,585.66,406.57,544Z"/><polygon points="0 708.87 111.01 708.87 153.19 421.62 42.17 421.62 0 708.87"/><path d="M1164.3,335.82H946.73l26.48-169.3h351.62c40.92,0,79.28-33.17,85.68-74.09L1425,0H914.14C869.17,0,827,36.45,820,81.41L780.21,335.82H662.11l18.66-119.34H595.66c-44.72,0-86.63,36.07-94,80.7l-75.9,485.1h0l-13.94,89.18H508c38.83,0,75.23-31.48,81.3-70.31l46.73-298.81h118.1L696.45,871.46h96.21c38.83,0,75.23-31.48,81.31-70.31l46.72-298.81h113.79L976.76,871.46H1073c38.83,0,75.23-31.48,81.3-70.31l4.46-28.47,68.19-436.86Z"/><polygon points="1351.33 543.97 1248.24 543.97 1236.38 627.36 1339.09 627.36 1314.53 794.68 1425.54 794.68 1492.9 335.82 1381.89 335.82 1351.33 543.97"/><polygon points="1541.23 421.62 1499.06 708.87 1610.08 708.87 1652.25 421.62 1541.23 421.62"/></g></g></svg>