<?xml version="1.0" standalone="no"?>
<!DOCTYPE svg PUBLIC "-//W3C//DTD SVG 20010904//EN"
 "http://www.w3.org/TR/2001/REC-SVG-20010904/DTD/svg10.dtd">
<svg version="1.0" xmlns="http://www.w3.org/2000/svg"
 width="1652.000000pt" height="1652.000000pt" viewBox="0 0 1652.000000 1652.000000"
 preserveAspectRatio="xMidYMid meet">
<metadata>
Created by potrace 1.14, written by Peter Selinger 2001-2017
</metadata>
<g transform="translate(0.000000,1652.000000) scale(0.100000,-0.100000)"
fill="#000000" stroke="none">
<path d="M9049 12615 c-3 -2 -22 -5 -43 -7 -20 -1 -40 -6 -42 -10 -3 -5 -9 -6
-13 -4 -8 5 -90 -17 -126 -33 -11 -5 -42 -19 -70 -32 -125 -56 -296 -193 -363
-291 -9 -13 -18 -25 -21 -28 -39 -34 -144 -251 -156 -320 -1 -3 -4 -21 -8 -40
-6 -33 -12 -68 -22 -135 -2 -16 -6 -41 -9 -55 -7 -35 -23 -139 -31 -195 -7
-56 -14 -100 -36 -230 -12 -71 -22 -141 -24 -155 -2 -14 -5 -38 -8 -55 -3 -16
-9 -50 -12 -75 -3 -25 -8 -52 -10 -60 -2 -8 -7 -40 -11 -70 -7 -60 -11 -84
-17 -115 -3 -11 -8 -42 -12 -70 -4 -27 -8 -59 -10 -70 -2 -11 -6 -40 -10 -65
-4 -25 -9 -56 -11 -70 -3 -14 -7 -43 -10 -65 -4 -34 -20 -131 -40 -250 -3 -16
-7 -43 -9 -60 -2 -16 -6 -41 -9 -55 -3 -14 -7 -43 -10 -65 -6 -45 -13 -93 -22
-145 -10 -59 -12 -74 -18 -115 -3 -22 -8 -51 -10 -65 -3 -14 -7 -41 -10 -60
-3 -19 -13 -80 -22 -135 -9 -55 -17 -112 -17 -127 -1 -14 -4 -26 -7 -26 -3 0
-8 -1 -12 -2 -19 -5 -76 -3 -92 3 -10 4 -23 4 -29 0 -6 -3 -31 -6 -56 -5 -66
2 -214 3 -226 2 -5 -1 -28 -1 -50 -1 -97 2 -141 2 -150 1 -10 -2 -56 -1 -120
1 -16 1 -34 0 -40 -1 -5 -1 -30 -1 -55 -1 -110 2 -216 2 -225 1 -5 -1 -28 -1
-50 -1 -22 1 -48 2 -58 2 -15 0 -17 6 -12 27 3 15 7 45 10 67 2 22 5 40 6 40
1 0 3 14 4 30 2 17 4 30 5 30 1 0 3 11 5 25 7 54 16 117 25 165 5 28 12 68 15
90 3 22 8 54 11 70 3 17 7 44 9 60 11 80 15 112 20 133 3 13 8 43 11 65 3 23
8 53 10 67 3 14 7 45 11 70 6 49 11 75 13 75 1 0 11 81 13 103 0 6 3 12 6 12
3 0 6 15 6 33 l0 32 -475 -2 c-261 -1 -482 -4 -490 -6 -8 -2 -33 -7 -55 -11
-230 -44 -475 -209 -615 -416 -39 -57 -94 -157 -95 -172 0 -3 -3 -10 -8 -14
-4 -4 -7 -16 -7 -26 0 -10 -5 -18 -12 -18 -6 0 -9 -3 -6 -6 3 -3 0 -29 -8 -57
-12 -47 -19 -80 -30 -157 -7 -49 -30 -192 -40 -250 -2 -14 -7 -45 -10 -70 -11
-75 -12 -85 -14 -85 -1 0 -3 -18 -6 -40 -2 -22 -9 -62 -14 -90 -6 -27 -12 -68
-15 -90 -2 -22 -7 -51 -10 -65 -3 -14 -8 -45 -11 -70 -3 -25 -12 -88 -21 -140
-8 -52 -17 -108 -18 -125 -2 -16 -7 -41 -10 -55 -3 -14 -7 -43 -10 -65 -4 -22
-8 -49 -10 -60 -1 -11 -7 -45 -11 -75 -4 -30 -9 -57 -9 -60 -1 -3 -5 -27 -9
-55 -4 -27 -10 -61 -12 -75 -3 -14 -7 -41 -10 -60 -6 -52 -13 -92 -19 -120 -5
-23 -10 -59 -20 -145 -2 -16 -4 -30 -5 -30 -1 0 -3 -11 -5 -25 -1 -14 -12 -83
-24 -155 -30 -180 -29 -175 -36 -225 -7 -52 -12 -83 -25 -160 -5 -30 -12 -73
-15 -95 -4 -22 -8 -49 -10 -60 -2 -11 -6 -42 -10 -70 -4 -27 -9 -60 -11 -72
-9 -49 -12 -71 -24 -148 -7 -44 -14 -89 -16 -100 -5 -26 -17 -116 -17 -132 0
-7 -3 -13 -6 -13 -3 0 -6 -12 -7 -27 -1 -36 -13 -131 -21 -163 -4 -13 -7 -36
-9 -50 -1 -14 -3 -25 -4 -25 -1 0 -3 -13 -4 -30 -4 -42 -19 -139 -31 -195 -3
-14 -8 -45 -11 -70 -6 -50 -11 -82 -19 -120 -3 -14 -7 -43 -10 -65 -3 -22 -7
-49 -9 -60 -2 -11 -7 -45 -11 -75 -4 -30 -9 -64 -12 -75 -4 -20 -7 -37 -18
-118 -3 -23 -8 -55 -11 -72 -3 -16 -7 -42 -10 -58 -2 -15 -6 -41 -9 -57 -3
-17 -7 -45 -10 -62 -13 -92 -28 -185 -31 -203 -2 -10 -6 -35 -9 -55 -3 -20 -7
-45 -9 -56 -2 -12 -8 -45 -11 -75 -4 -30 -9 -63 -11 -74 -9 -66 -15 -102 -19
-121 -3 -12 -7 -39 -10 -60 -4 -21 -8 -50 -11 -64 -2 -14 -7 -45 -10 -70 -3
-25 -7 -52 -9 -60 -2 -8 -7 -37 -11 -65 -3 -27 -8 -59 -11 -70 -2 -11 -6 -36
-8 -55 -2 -19 -4 -35 -5 -35 -1 0 -3 -13 -5 -30 -2 -16 -8 -57 -14 -89 -6 -33
-11 -66 -11 -73 0 -11 92 -13 524 -13 288 1 539 5 557 10 19 5 45 11 59 14 82
14 220 82 311 151 169 131 298 346 323 542 7 50 16 108 22 133 3 14 7 43 10
65 2 22 6 49 8 60 2 11 7 45 11 75 8 60 13 85 15 85 1 0 3 14 5 30 2 17 7 48
10 70 4 22 8 51 10 65 2 14 6 43 10 65 29 180 36 224 40 248 11 73 16 104 19
122 2 11 7 45 11 75 4 30 11 65 16 78 6 15 5 21 -1 17 -6 -4 -7 2 -1 17 5 13
12 46 15 73 4 28 14 93 22 145 22 131 23 138 29 195 3 28 8 57 11 65 3 8 7 33
10 55 3 22 9 63 14 90 5 28 12 70 15 95 3 25 12 83 20 130 8 47 17 105 20 130
4 25 11 67 16 94 5 26 7 52 4 56 -3 5 -2 11 3 14 4 2 9 22 10 44 2 22 5 49 7
61 3 11 7 29 9 38 2 10 7 41 10 68 4 28 8 61 11 75 11 60 17 97 20 130 2 19 6
46 10 60 3 14 7 43 10 65 4 22 7 48 9 57 1 10 5 21 9 25 4 4 270 7 592 7 l584
1 -5 -30 c-2 -17 -6 -49 -9 -70 -2 -22 -5 -40 -5 -40 -1 0 -4 -11 -5 -25 -11
-76 -15 -107 -20 -126 -2 -12 -7 -37 -10 -58 -3 -20 -8 -53 -11 -73 -3 -21 -7
-49 -9 -63 -1 -14 -6 -41 -9 -60 -4 -19 -9 -51 -11 -70 -3 -19 -7 -46 -10 -60
-3 -14 -7 -43 -10 -65 -3 -22 -14 -96 -26 -165 -11 -69 -22 -141 -25 -160 -3
-19 -7 -44 -9 -55 -1 -11 -6 -36 -9 -55 -3 -19 -8 -53 -11 -75 -3 -22 -7 -51
-10 -65 -2 -14 -6 -41 -9 -60 -3 -19 -12 -78 -20 -130 -8 -52 -17 -111 -20
-130 -3 -19 -8 -46 -10 -60 -3 -14 -7 -43 -10 -65 -4 -22 -8 -51 -11 -65 -3
-14 -7 -43 -10 -65 -3 -22 -8 -51 -10 -65 -3 -14 -7 -41 -9 -62 -3 -20 -10
-65 -16 -100 -7 -34 -14 -81 -17 -103 -2 -22 -6 -51 -9 -65 -3 -14 -7 -38 -9
-55 -2 -16 -6 -43 -10 -60 -3 -16 -8 -48 -10 -70 -3 -22 -7 -51 -10 -65 -3
-14 -7 -43 -10 -65 -3 -22 -7 -51 -10 -65 -3 -14 -8 -40 -10 -57 -3 -18 -8
-50 -11 -70 -3 -21 -7 -49 -9 -63 -1 -14 -5 -38 -8 -55 -4 -16 -9 -50 -12 -75
-3 -25 -8 -52 -10 -60 -2 -8 -6 -31 -9 -50 -15 -107 -19 -137 -22 -155 -7 -36
-23 -139 -28 -175 -5 -39 -35 -225 -41 -253 -3 -17 21 -18 538 -14 298 2 553
6 567 9 95 22 280 101 280 120 0 4 6 8 13 8 27 0 191 155 225 213 9 15 20 27
24 27 4 0 8 5 8 11 0 6 9 23 20 39 23 32 79 169 85 208 3 15 14 79 25 142 11
63 22 133 25 155 4 22 8 51 10 65 2 14 6 43 10 65 3 23 8 52 10 65 3 14 8 43
10 65 3 22 12 78 20 125 8 47 17 105 20 130 3 25 10 68 16 95 5 28 11 68 14
90 2 22 6 49 9 60 2 11 7 45 11 75 4 30 9 64 12 75 2 11 6 34 8 50 2 17 6 44
9 60 2 17 7 53 11 80 4 28 9 59 11 70 2 11 6 34 9 50 3 17 8 41 10 55 3 14 7
43 10 65 7 60 13 95 30 205 3 14 7 42 10 64 4 21 9 48 11 60 2 11 7 41 10 66
3 25 7 56 10 70 5 25 7 34 19 120 11 79 15 104 26 157 6 29 8 57 4 63 -3 5 -2
10 4 10 5 0 8 8 6 18 -1 9 0 21 3 26 3 5 6 23 7 40 1 17 5 45 8 61 4 17 9 48
12 70 2 22 6 49 9 60 5 29 19 116 21 140 2 11 5 34 8 50 4 17 9 53 13 80 3 28
10 52 14 55 6 4 997 5 1113 1 16 -1 26 -5 23 -9 -5 -9 -14 -55 -22 -111 -2
-19 -6 -46 -9 -60 -2 -14 -6 -44 -10 -66 -3 -23 -7 -52 -10 -65 -3 -13 -7 -41
-10 -62 -3 -20 -8 -50 -10 -65 -2 -15 -6 -39 -9 -53 -2 -14 -8 -47 -12 -75 -4
-27 -8 -57 -9 -65 -2 -8 -5 -31 -8 -50 -8 -51 -27 -171 -32 -200 -3 -14 -7
-47 -11 -75 -3 -27 -7 -52 -9 -55 -2 -3 -6 -30 -10 -60 -4 -30 -8 -57 -10 -60
-2 -3 -6 -34 -10 -70 -4 -36 -9 -68 -11 -71 -1 -3 -6 -28 -9 -55 -3 -27 -7
-56 -9 -64 -5 -24 -17 -102 -21 -135 -2 -16 -4 -30 -5 -30 -1 0 -3 -14 -5 -30
-2 -17 -6 -46 -10 -65 -3 -19 -8 -46 -10 -60 -8 -61 -47 -307 -51 -330 -3 -14
-7 -41 -10 -60 -2 -19 -7 -47 -10 -62 -6 -29 -15 -107 -18 -145 0 -13 -3 -23
-6 -23 -3 0 -7 -15 -8 -32 -3 -33 -9 -73 -12 -73 -1 0 -3 -16 -5 -35 -2 -19
-6 -51 -9 -70 -4 -19 -9 -53 -12 -75 -3 -22 -8 -50 -10 -62 -6 -35 -10 -63
-19 -123 -4 -30 -9 -64 -11 -75 -4 -20 -9 -50 -19 -120 -3 -19 -8 -52 -11 -73
-5 -34 -8 -52 -20 -122 -3 -14 -6 -38 -8 -55 -3 -16 -7 -43 -10 -60 -3 -16 -9
-50 -12 -75 -3 -25 -8 -54 -10 -65 -4 -19 -8 -47 -18 -120 -2 -16 -7 -51 -11
-78 l-7 -47 510 0 c620 0 632 1 827 102 228 117 411 378 440 628 3 25 8 54 10
66 10 46 18 100 19 122 0 12 2 22 6 22 3 0 6 15 6 33 1 36 12 114 19 137 2 8
7 38 10 65 3 28 9 64 13 80 5 17 8 42 8 58 -1 15 1 27 4 27 3 0 6 8 6 18 1 27
14 124 18 131 2 3 6 29 10 56 3 28 8 59 10 70 2 11 7 43 10 70 4 28 9 57 11
65 2 8 6 38 10 65 3 28 8 59 11 70 2 11 6 36 9 55 2 19 6 46 9 60 3 14 7 43
10 65 3 22 8 54 11 70 7 41 14 83 20 130 3 22 10 65 15 95 5 30 12 73 15 95 3
23 7 52 10 65 3 13 7 42 10 65 3 22 11 69 16 105 6 36 12 76 14 90 2 14 13 81
24 149 11 68 20 127 19 130 0 3 1 8 2 11 3 10 9 45 14 90 3 25 10 70 16 100 6
30 13 75 15 100 3 25 8 56 10 70 13 65 15 78 20 115 3 22 10 69 16 105 5 36
12 79 15 95 2 17 6 41 9 55 3 14 7 41 9 60 10 78 37 246 42 263 3 9 7 36 9 60
2 23 6 53 9 67 3 13 8 42 11 65 7 45 33 217 40 256 5 28 14 90 20 129 1 14 8
57 15 95 6 39 13 86 15 105 2 19 6 46 9 60 11 59 37 220 41 256 2 21 7 53 10
69 13 67 12 69 -27 76 -21 3 -40 3 -43 1 -3 -3 -24 -5 -48 -4 -62 3 -141 4
-152 2 -5 -1 -30 -1 -55 -1 -119 2 -136 2 -145 1 -9 -2 -28 -2 -115 1 -19 1
-39 0 -45 -1 -5 -1 -28 -1 -50 -1 -94 2 -181 2 -190 1 -5 -1 -28 -2 -50 -1
-92 1 -261 2 -270 0 -5 0 -28 0 -50 0 -94 2 -181 2 -190 1 -9 -2 -29 -1 -115
1 -19 1 -38 0 -42 -1 -20 -5 -77 -3 -92 3 -10 4 -23 4 -29 0 -6 -3 -31 -6 -56
-5 -66 2 -214 3 -226 2 -5 -1 -28 -1 -50 -1 -97 2 -141 2 -150 1 -5 -1 -30 -1
-55 -1 -119 2 -136 2 -145 1 -9 -2 -28 -2 -115 1 -19 1 -39 0 -45 -1 -5 -1
-28 -1 -50 -1 -22 1 -75 1 -118 1 -54 -1 -77 2 -72 10 4 6 8 24 10 41 9 70 16
117 25 164 5 28 12 70 15 95 8 61 11 78 19 130 14 82 16 95 20 116 2 12 7 45
11 74 4 29 9 62 11 74 2 12 7 41 10 66 3 25 7 52 9 60 2 8 7 38 11 65 3 28 8
59 10 70 3 11 6 34 9 50 2 17 7 48 11 70 3 22 8 53 10 69 5 39 33 213 40 251
3 17 7 41 9 55 2 25 13 91 21 140 3 14 7 38 9 54 2 16 7 31 10 34 3 3 819 6
1813 7 994 1 1818 5 1832 9 14 4 32 9 40 10 9 1 21 5 28 10 6 4 12 5 12 2 0
-19 178 66 265 125 118 81 262 245 291 332 4 9 10 17 15 17 5 0 8 3 7 8 -1 4
8 34 21 67 13 33 25 69 27 80 2 11 6 31 9 45 5 22 37 218 51 305 2 17 7 41 9
55 3 14 7 45 10 70 3 25 10 70 15 100 9 52 14 86 24 148 3 15 8 47 11 72 3 25
8 52 10 60 2 8 6 38 10 65 3 28 8 58 11 68 5 16 -121 17 -2594 17 -1429 0
-2601 -2 -2603 -5z"/>
<path d="M13887 9262 c-74 -3 -73 -3 -81 -72 -3 -25 -8 -56 -10 -70 -2 -14 -7
-47 -11 -75 -4 -27 -10 -68 -14 -91 -4 -22 -7 -52 -7 -67 1 -15 -1 -27 -4 -27
-3 0 -7 -10 -7 -22 -2 -30 -11 -93 -13 -93 -1 0 -3 -16 -5 -35 -1 -19 -5 -51
-8 -70 -3 -19 -9 -53 -13 -75 -4 -22 -8 -56 -9 -75 -2 -19 -4 -35 -5 -35 -2 0
-6 -22 -15 -85 -4 -30 -8 -62 -10 -71 -1 -8 -6 -42 -10 -74 -3 -33 -8 -62 -10
-65 -1 -3 -5 -29 -9 -58 -3 -29 -17 -125 -31 -215 -13 -89 -27 -182 -30 -207
-3 -25 -8 -56 -10 -70 -3 -14 -7 -45 -10 -70 -6 -49 -13 -85 -15 -85 -1 0 -3
-13 -4 -30 -2 -16 -7 -55 -11 -85 -4 -30 -9 -64 -11 -75 -1 -11 -3 -20 -4 -20
-1 0 -3 -13 -4 -28 0 -15 -6 -31 -13 -35 -6 -4 -237 -7 -512 -6 -329 1 -504
-2 -508 -9 -3 -6 -7 -20 -9 -31 -3 -27 -12 -93 -25 -174 -5 -34 -12 -84 -14
-110 -3 -26 -7 -56 -10 -67 -2 -11 -7 -42 -10 -70 -4 -27 -8 -61 -11 -75 -2
-14 -6 -45 -10 -70 -3 -25 -7 -56 -10 -70 -2 -14 -7 -50 -10 -80 -4 -30 -7
-59 -8 -65 -1 -7 175 -10 511 -10 l511 0 -4 -35 c-2 -19 -6 -46 -9 -60 -2 -14
-7 -45 -10 -70 -3 -25 -8 -56 -10 -70 -3 -14 -7 -41 -9 -60 -3 -19 -8 -53 -11
-75 -3 -22 -8 -56 -11 -75 -2 -19 -9 -60 -14 -90 -5 -30 -12 -82 -16 -115 -3
-33 -10 -65 -16 -72 -7 -9 -7 -13 1 -13 7 0 10 -4 7 -8 -5 -9 -14 -53 -21
-102 -2 -14 -6 -44 -9 -67 -13 -85 -16 -104 -21 -135 -10 -73 -16 -116 -20
-139 -5 -33 -13 -85 -21 -144 -3 -27 -8 -59 -10 -70 -2 -11 -7 -42 -10 -70 -3
-27 -11 -84 -18 -125 -8 -41 -12 -77 -10 -79 2 -3 947 -4 1081 -2 23 1 32 6
31 19 0 15 4 42 17 132 2 14 6 41 9 60 7 49 17 110 23 145 2 17 6 46 8 65 2
19 6 46 9 60 2 14 7 45 10 70 3 25 8 56 11 70 3 14 7 45 10 70 2 25 6 54 8 65
4 20 13 81 22 145 3 19 7 46 10 60 3 14 8 43 10 65 3 22 7 56 10 75 3 19 8 51
10 70 2 19 7 51 10 70 3 19 8 51 10 70 2 19 6 49 9 65 3 17 8 48 11 70 4 22 9
54 12 70 3 17 7 46 8 65 4 33 7 55 19 125 6 39 25 171 30 215 3 19 6 35 7 35
1 0 3 11 4 25 1 14 5 45 9 70 4 25 10 61 12 80 3 19 11 76 19 125 13 81 23
154 29 210 3 18 12 78 21 130 2 11 6 43 10 70 3 28 8 64 11 80 2 17 6 46 9 65
2 19 11 78 19 130 16 100 26 168 32 210 1 14 5 40 8 58 11 73 18 118 21 137 1
11 6 44 10 74 3 30 9 63 11 75 2 12 6 37 9 56 12 90 14 107 19 135 3 17 7 48
11 70 3 23 7 50 9 61 2 12 7 45 11 75 4 30 9 65 11 79 1 14 5 41 8 60 3 19 8
53 11 75 3 22 7 51 10 65 3 14 8 49 10 77 2 29 6 56 8 60 3 5 8 35 11 67 4 32
8 62 11 65 2 4 7 36 10 71 4 36 9 68 11 71 5 8 -54 18 -61 11 -3 -3 -24 -5
-48 -4 -86 4 -102 4 -112 2 -5 -1 -30 -1 -55 -1 -110 2 -216 2 -225 1 -5 -1
-28 -1 -50 -1 -97 2 -141 2 -150 1 -10 -2 -56 -1 -120 1 -16 1 -34 0 -40 -1
-18 -3 -93 -2 -102 1 -4 2 -39 3 -76 1z"/>
<path d="M2269 9257 c-2 -6 -8 -38 -13 -77 -6 -42 -18 -119 -21 -130 -1 -3 -5
-34 -9 -70 -5 -36 -10 -74 -13 -85 -2 -11 -6 -36 -7 -55 -2 -19 -4 -35 -6 -35
-1 0 -3 -9 -4 -20 -12 -96 -19 -142 -22 -160 -3 -11 -7 -38 -9 -60 -3 -22 -7
-51 -9 -65 -3 -14 -8 -43 -11 -65 -3 -23 -7 -50 -9 -60 -2 -11 -7 -45 -10 -76
-4 -31 -9 -67 -11 -80 -3 -13 -7 -40 -10 -59 -6 -50 -15 -111 -21 -140 -3 -14
-7 -45 -10 -70 -2 -25 -7 -56 -9 -70 -3 -14 -7 -45 -11 -70 -3 -25 -7 -52 -9
-60 -2 -8 -7 -42 -11 -75 -10 -86 -12 -100 -14 -100 -1 0 -3 -11 -5 -25 -4
-40 -14 -113 -19 -140 -6 -32 -13 -82 -22 -150 -7 -59 -12 -85 -14 -85 -1 0
-3 -13 -4 -30 -5 -43 -15 -116 -21 -145 -3 -14 -8 -45 -11 -70 -9 -72 -13
-104 -18 -126 -2 -12 -7 -45 -11 -75 -3 -30 -8 -61 -10 -69 -4 -14 -6 -30 -21
-140 -15 -115 -21 -155 -28 -190 -3 -14 -7 -45 -10 -70 -5 -42 -8 -62 -21
-142 -3 -18 -7 -49 -9 -68 -2 -19 -8 -64 -14 -100 -6 -36 -13 -83 -17 -105 -3
-22 -7 -51 -10 -65 -2 -14 -6 -47 -10 -75 -3 -27 -10 -75 -15 -105 -5 -30 -12
-80 -15 -110 -4 -30 -9 -58 -11 -61 -1 -3 -6 -28 -9 -55 -3 -27 -7 -62 -10
-79 -2 -16 -7 -50 -10 -75 -4 -25 -8 -56 -11 -70 -2 -14 -6 -38 -9 -55 -2 -16
-7 -48 -10 -70 -4 -22 -8 -53 -10 -70 -6 -49 -14 -103 -19 -137 -3 -18 -8 -49
-11 -68 -2 -19 -7 -45 -9 -57 -4 -17 0 -23 12 -24 64 -2 1094 0 1097 3 1 2 5
28 8 58 3 30 8 64 10 75 3 11 8 43 11 70 4 28 9 61 11 75 7 46 17 115 20 130
2 8 6 42 10 75 3 32 8 62 10 65 1 3 6 36 10 75 4 38 8 73 11 76 2 3 6 30 10
60 10 87 12 104 14 104 2 0 6 26 13 90 3 22 10 69 15 105 14 82 23 148 27 180
2 14 5 39 8 55 3 17 8 50 11 75 3 25 8 56 11 69 2 14 7 47 10 75 3 28 8 58 10
66 3 8 7 30 9 48 2 18 6 36 10 39 3 3 225 6 494 6 442 0 488 1 489 16 1 9 8
57 17 106 8 50 18 108 21 130 3 23 7 50 9 60 2 11 7 42 10 68 4 27 9 57 11 66
2 10 6 42 10 71 4 29 9 62 11 74 3 12 6 38 9 58 2 21 6 41 8 45 3 5 8 32 11
62 4 29 9 58 12 62 7 13 25 12 -491 15 -258 1 -478 3 -487 3 -19 1 -19 6 7
151 2 14 7 49 10 79 4 30 9 63 11 75 3 12 7 41 9 66 3 25 7 54 10 66 2 12 9
52 14 90 14 93 21 144 27 174 2 14 6 45 9 70 3 25 7 54 9 66 2 12 7 43 11 70
3 27 8 58 10 69 2 11 6 46 10 78 4 31 12 60 16 63 5 3 7 10 3 15 -3 5 0 44 6
87 6 42 14 93 16 112 3 19 8 49 10 65 3 17 7 43 9 58 10 74 17 117 25 167 5
30 12 80 15 110 4 30 9 58 11 62 3 4 7 29 9 55 4 54 11 104 23 180 l9 52 -554
0 c-304 0 -553 -1 -554 -2z"/>
<path d="M436 8401 c-13 -5 -20 -19 -22 -51 -3 -24 -7 -55 -9 -69 -11 -57 -19
-108 -29 -191 -2 -14 -6 -43 -9 -65 -6 -35 -15 -100 -22 -145 -1 -8 -5 -35 -9
-60 -8 -53 -16 -105 -20 -140 -2 -14 -7 -50 -11 -80 -4 -30 -8 -57 -10 -60 -2
-3 -6 -32 -9 -65 -4 -33 -10 -71 -13 -85 -4 -14 -8 -41 -9 -60 -1 -19 -3 -35
-4 -35 -2 0 -4 -11 -5 -25 -1 -14 -5 -43 -9 -65 -4 -22 -9 -59 -12 -81 -3 -23
-7 -53 -10 -65 -2 -13 -7 -44 -10 -69 -3 -25 -7 -52 -9 -60 -2 -8 -7 -40 -10
-70 -3 -30 -8 -64 -12 -74 -3 -10 -6 -35 -8 -55 -2 -32 -22 -167 -30 -212 -2
-9 -6 -40 -10 -69 -4 -29 -8 -62 -11 -73 -2 -10 -6 -45 -10 -76 -3 -31 -8 -59
-10 -62 -2 -4 -7 -33 -10 -65 -8 -70 -12 -99 -14 -99 -1 0 -3 -16 -5 -35 -2
-19 -6 -48 -9 -65 -3 -16 -8 -47 -11 -67 -3 -21 -8 -55 -11 -75 -3 -21 -8 -54
-10 -73 -8 -57 -12 -83 -18 -122 -15 -98 -16 -108 -3 -109 6 0 254 -1 550 -2
504 -2 540 -1 548 16 5 9 7 17 3 17 -3 0 -1 7 6 15 9 11 9 15 1 15 -8 0 -9 6
-2 18 5 9 9 19 9 22 -1 5 12 109 17 144 3 21 20 131 30 196 3 19 8 58 11 85 3
28 8 53 10 57 2 3 6 28 9 55 3 26 7 59 10 72 2 13 7 49 11 80 3 31 8 59 10 62
1 3 6 32 9 65 3 32 8 66 10 74 6 22 17 99 20 145 2 22 4 40 5 40 3 0 12 55 25
155 3 23 9 59 20 120 2 14 7 48 10 75 3 28 7 61 9 75 3 14 7 43 10 65 4 22 8
51 11 65 3 14 7 45 10 70 2 25 6 54 9 65 2 11 7 45 11 75 4 30 9 64 11 75 4
20 6 34 19 130 4 28 9 58 11 69 2 10 6 44 10 75 3 31 8 65 11 76 2 11 6 34 8
50 5 37 12 86 21 145 4 25 8 54 9 65 1 11 3 20 5 20 1 0 4 23 6 50 4 47 11 90
14 90 1 0 4 19 6 41 4 31 1 43 -10 47 -9 4 -18 2 -21 -4 -4 -5 -11 -6 -17 -3
-15 9 -157 11 -151 2 2 -5 -6 -4 -19 1 -29 11 -37 11 -65 0 -13 -5 -23 -5 -23
-1 0 9 -83 7 -99 -2 -6 -4 -11 -4 -11 1 0 6 -303 9 -445 4 -16 -1 -55 0 -87 1
-31 2 -54 0 -51 -4 2 -5 -7 -4 -21 2 -17 6 -27 6 -32 -1 -4 -7 -9 -8 -13 -1
-3 5 -14 6 -25 3z"/>
<path d="M15409 8388 c-1 -10 -2 -21 -3 -25 -1 -5 -6 -33 -10 -63 -5 -30 -10
-62 -11 -70 -2 -8 -6 -35 -9 -60 -3 -25 -8 -56 -11 -70 -5 -26 -14 -91 -20
-149 -3 -19 -7 -50 -10 -70 -9 -50 -15 -90 -20 -131 -2 -19 -7 -46 -10 -60 -3
-14 -7 -47 -10 -75 -3 -27 -8 -63 -11 -80 -6 -32 -6 -32 -23 -151 -6 -44 -13
-90 -15 -101 -4 -17 -14 -88 -21 -143 -1 -8 -5 -33 -8 -55 -4 -22 -9 -58 -12
-80 -3 -22 -8 -51 -10 -65 -2 -14 -6 -45 -9 -70 -3 -25 -8 -56 -10 -70 -4 -22
-18 -114 -32 -220 -3 -19 -8 -48 -11 -65 -3 -16 -7 -41 -8 -55 -2 -14 -4 -25
-5 -25 -1 0 -3 -16 -5 -35 -1 -19 -5 -51 -8 -70 -3 -19 -9 -57 -13 -85 -3 -27
-8 -59 -10 -70 -2 -11 -7 -40 -10 -65 -3 -24 -8 -56 -11 -70 -2 -14 -5 -38 -7
-55 -2 -16 -6 -43 -9 -60 -7 -39 -19 -123 -22 -155 -1 -14 -3 -25 -4 -25 -2 0
-7 -26 -15 -95 -3 -19 -8 -55 -11 -80 l-6 -45 552 1 553 0 8 35 c4 19 9 52 12
74 3 22 8 49 10 60 2 11 7 45 10 75 4 30 8 66 11 80 2 14 7 41 9 60 3 19 8 53
11 75 3 22 12 81 20 130 15 100 24 160 29 202 4 32 17 120 21 143 2 8 6 35 10
60 3 25 9 59 11 75 3 17 7 48 10 70 2 22 6 51 9 65 3 14 8 45 10 70 2 25 6 54
8 65 3 11 8 45 12 75 4 30 9 64 11 75 5 24 8 44 29 191 9 60 18 121 20 135 3
14 7 43 9 64 5 39 8 60 22 148 3 23 8 53 9 67 2 14 8 57 15 95 6 39 13 84 15
100 3 32 15 118 21 150 2 11 7 40 10 65 3 25 8 59 11 75 3 17 6 41 8 55 1 14
6 45 10 70 4 25 9 59 11 75 2 17 6 42 9 57 5 19 1 29 -12 36 -23 13 -26 13
-63 2 -16 -5 -30 -6 -30 -2 0 6 -251 7 -385 3 -16 -1 -55 0 -87 1 -31 2 -54 0
-52 -4 3 -4 -3 -5 -12 -1 -24 9 -205 10 -231 1 -13 -4 -23 -4 -23 0 0 9 -83 7
-99 -2 -6 -4 -11 -4 -11 1 0 4 -23 8 -50 8 -40 0 -50 -3 -51 -17z"/>
</g>
</svg>
